Coordinates
version=1
nRows=10
nColumns=40
inDegrees=yes

Units are S.I. units (second, meters, Newtons, ...)
If the header above contains a line with 'inDegrees', this indicates whether rotational values are in degrees (yes) or radians (no).

endheader
time	pelvis_tilt	pelvis_list	pelvis_rotation	pelvis_tx	pelvis_ty	pelvis_tz	hip_flexion_r	hip_adduction_r	hip_rotation_r	knee_angle_r	knee_angle_r_beta	ankle_angle_r	subtalar_angle_r	mtp_angle_r	hip_flexion_l	hip_adduction_l	hip_rotation_l	knee_angle_l	knee_angle_l_beta	ankle_angle_l	subtalar_angle_l	mtp_angle_l	lumbar_extension	lumbar_bending	lumbar_rotation	arm_flex_r	arm_add_r	arm_rot_r	elbow_flex_r	pro_sup_r	wrist_flex_r	wrist_dev_r	arm_flex_l	arm_add_l	arm_rot_l	elbow_flex_l	pro_sup_l	wrist_flex_l	wrist_dev_l
      5.17500000	    -32.13183299	      5.34132003	      0.79440002	     -0.33266120	      0.82724229	     -1.02667505	     42.05500677	     -3.29004024	    -21.71144881	    110.74148841	      1.93280359	    -33.94970459	      0.00000000	      0.00000000	     78.91720009	      6.46839262	     -7.34192313	     73.52966268	      1.28333471	     26.01388306	      0.00000000	      0.00000000	      3.56622907	    -13.46266036	     -4.65157416	     89.95166324	    -10.22180599	     16.05362022	     45.15552123	     85.71169471	      0.00000000	      0.00000000	     89.96200867	    -18.78982237	     17.72081583	     49.88517012	     85.30251380	      0.00000000	      0.00000000
      5.18000000	    -32.00084819	      5.33555324	      0.69923646	     -0.33256905	      0.82865805	     -1.02660701	     41.98044272	     -3.26728669	    -21.69746386	    110.84970320	      1.93469230	    -33.97112217	      0.00000000	      0.00000000	     78.63883802	      6.41609790	     -7.32099720	     73.30686733	      1.27944620	     25.92261880	      0.00000000	      0.00000000	      3.56335487	    -13.43202057	     -4.56708815	     89.95148246	    -10.22063792	     16.10969319	     45.08870608	     85.71507701	      0.00000000	      0.00000000	     89.96185048	    -18.82908055	     17.75279118	     49.86099678	     85.30211739	      0.00000000	      0.00000000
      5.18500000	    -31.91882738	      5.26584452	      0.64519361	     -0.33261352	      0.82997286	     -1.02654270	     41.93661108	     -3.16522661	    -21.72771729	    110.94310915	      1.93632254	    -33.95301682	      0.00000000	      0.00000000	     78.42967990	      6.35513466	     -7.26913478	     73.10135666	      1.27585936	     25.84526478	      0.00000000	      0.00000000	      3.59201115	    -13.35309828	     -4.52929493	     89.95140580	    -10.21724514	     16.14968912	     45.07127988	     85.71719863	      0.00000000	      0.00000000	     89.96179365	    -18.83747675	     17.77601582	     49.85065035	     85.30198987	      0.00000000	      0.00000000
      5.19000000	    -31.78121827	      5.25365800	      0.54829484	     -0.33248955	      0.83146827	     -1.02644815	     41.82032940	     -3.08172253	    -21.69199910	    110.95505387	      1.93653101	    -33.93995618	      0.00000000	      0.00000000	     78.11159139	      6.31220499	     -7.20915913	     72.81485765	      1.27085901	     25.71666902	      0.00000000	      0.00000000	      3.58276138	    -13.31308963	     -4.41111220	     89.95126739	    -10.23873617	     16.23268666	     44.98989873	     85.71984710	      0.00000000	      0.00000000	     89.96160027	    -18.86711692	     17.86107212	     49.81070734	     85.30362984	      0.00000000	      0.00000000
      5.19500000	    -31.66733164	      5.21302769	      0.48487322	     -0.33240490	      0.83284490	     -1.02645831	     41.74344635	     -3.04458712	    -21.72634117	    111.05744173	      1.93831802	    -33.95004348	      0.00000000	      0.00000000	     77.87784983	      6.28178145	     -7.15605948	     72.64326708	      1.26786419	     25.63474228	      0.00000000	      0.00000000	      3.58717523	    -13.24111342	     -4.35286110	     89.95108649	    -10.22830030	     16.28196403	     44.96423914	     85.72098998	      0.00000000	      0.00000000	     89.96152874	    -18.88588704	     17.89626911	     49.78309687	     85.30291421	      0.00000000	      0.00000000
      5.20000000	    -31.53468440	      5.19332346	      0.36318247	     -0.33233370	      0.83426984	     -1.02627167	     41.62612015	     -2.95736096	    -21.69928002	    111.12164935	      1.93943865	    -33.93846600	      0.00000000	      0.00000000	     77.59938325	      6.21357949	     -7.08726096	     72.41679951	      1.26391159	     25.53269971	      0.00000000	      0.00000000	      3.58671531	    -13.19924137	     -4.21866012	     89.95096911	    -10.24397836	     16.33497160	     44.90226764	     85.72390071	      0.00000000	      0.00000000	     89.96136226	    -18.92509902	     17.93983933	     49.76120847	     85.30453273	      0.00000000	      0.00000000
      5.20500000	    -31.41375709	      5.14806775	      0.31648958	     -0.33226571	      0.83576729	     -1.02633377	     41.53395233	     -2.86889101	    -21.71545244	    111.15187795	      1.93996624	    -33.92091668	      0.00000000	      0.00000000	     77.31523270	      6.16784626	     -7.08053187	     72.15851214	      1.25940362	     25.43069844	      0.00000000	      0.00000000	      3.56960553	    -13.13161312	     -4.19318378	     89.95084331	    -10.23848808	     16.41138339	     44.88363224	     85.72475321	      0.00000000	      0.00000000	     89.96129517	    -18.92597062	     18.00535576	     49.71702740	     85.30817664	      0.00000000	      0.00000000
      5.21000000	    -31.30652292	      5.06726062	      0.25367088	     -0.33224934	      0.83719799	     -1.02623062	     41.41399893	     -2.76726099	    -21.77795951	    111.15849942	      1.94008181	    -33.91761021	      0.00000000	      0.00000000	     77.06473035	      6.09948382	     -6.99615353	     71.92607281	      1.25534679	     25.32447741	      0.00000000	      0.00000000	      3.57676856	    -13.03234852	     -4.12409888	     89.95080053	    -10.27716828	     16.47671983	     44.83349138	     85.72650732	      0.00000000	      0.00000000	     89.96115771	    -18.93560107	     18.07095099	     49.67520252	     85.30920621	      0.00000000	      0.00000000
      5.21500000	    -31.18477634	      5.06024310	      0.19999744	     -0.33214431	      0.83869403	     -1.02630458	     41.29002196	     -2.75555068	    -21.77970049	    111.19106260	      1.94065014	    -33.92278727	      0.00000000	      0.00000000	     76.79029774	      6.09857868	     -6.95437914	     71.68567119	      1.25115099	     25.21112328	      0.00000000	      0.00000000	      3.55453637	    -12.99619599	     -4.08334731	     89.95064917	    -10.26695928	     16.57116582	     44.79624845	     85.72732283	      0.00000000	      0.00000000	     89.96105603	    -18.95103800	     18.11073397	     49.64438206	     85.30731248	      0.00000000	      0.00000000
      5.22000000	    -31.02516297	      5.05769675	      0.11437340	     -0.33200813	      0.84029733	     -1.02627743	     41.12455733	     -2.67187050	    -21.74093208	    111.19609890	      1.94073804	    -33.91178549	      0.00000000	      0.00000000	     76.45939174	      6.09187196	     -6.90136391	     71.40553167	      1.24626163	     25.08410339	      0.00000000	      0.00000000	      3.51646625	    -12.96455743	     -3.95891204	     89.95057232	    -10.29718192	     16.63901217	     44.76015201	     85.72313246	      0.00000000	      0.00000000	     89.96088241	    -18.97501397	     18.20655644	     49.59740928	     85.31343786	      0.00000000	      0.00000000
